/* XPM */
static char *e36b2d47618644d89fe65426cde64de7[] = {
/* columns rows colors chars-per-pixel */
"64 44 173 2 ",
"   c #010101",
".  c #0B0605",
"X  c #070909",
"o  c #0B0C0C",
"O  c #1B0F0F",
"+  c #121314",
"@  c #141618",
"#  c #141818",
"$  c #181C1D",
"%  c #1C2121",
"&  c #222526",
"*  c #232628",
"=  c #272B2C",
"-  c #2A2E2F",
";  c #362121",
":  c #3E2222",
">  c #3E2728",
",  c #2B2F30",
"<  c #2D3233",
"1  c #323435",
"2  c #363738",
"3  c #35393B",
"4  c #3C3D3E",
"5  c #530F10",
"6  c #5D0E10",
"7  c #4F1819",
"8  c #521315",
"9  c #5C1011",
"0  c #5E1819",
"q  c #610F11",
"w  c #611012",
"e  c #6F1012",
"r  c #741114",
"t  c #7E1416",
"y  c #451F20",
"u  c #412122",
"i  c #4A2626",
"p  c #4A2728",
"a  c #4B2B2C",
"s  c #542C2B",
"d  c #4B2F30",
"f  c #463435",
"g  c #4D3738",
"h  c #46393A",
"j  c #632323",
"k  c #69302F",
"l  c #653534",
"z  c #773E3C",
"x  c #7D413F",
"c  c #393F41",
"v  c #3C4244",
"b  c #424242",
"n  c #4E4243",
"m  c #444B4E",
"M  c #4A4A4B",
"N  c #504041",
"B  c #474E51",
"V  c #4B4E50",
"C  c #4C5254",
"Z  c #4E5659",
"A  c #545556",
"S  c #595152",
"D  c #525A5D",
"F  c #5B5C5D",
"G  c #565E61",
"H  c #585F62",
"J  c #576062",
"K  c #5A6265",
"L  c #5E6669",
"P  c #5F686B",
"I  c #646464",
"U  c #626A6D",
"Y  c #6A6B6B",
"T  c #666E71",
"R  c #686F72",
"E  c #6A7174",
"W  c #6F7578",
"Q  c #727577",
"!  c #717779",
"~  c #747A7C",
"^  c #787B7C",
"/  c #841517",
"(  c #861619",
")  c #89171A",
"_  c #8C191B",
"`  c #941C1F",
"'  c #971D20",
"]  c #981E21",
"[  c #9E2326",
"{  c #9C2628",
"}  c #9B2A2C",
"|  c #9D2F30",
" . c #9E3233",
".. c #A0272A",
"X. c #A13637",
"o. c #A13738",
"O. c #A23C3C",
"+. c #884644",
"@. c #954C4A",
"#. c #984E4C",
"$. c #A54242",
"%. c #AC4747",
"&. c #A74847",
"*. c #AC4947",
"=. c #AB4C4B",
"-. c #AE504F",
";. c #A55351",
":. c #AC5553",
">. c #AE5C5E",
",. c #B05553",
"<. c #B06163",
"1. c #B27C7E",
"2. c #777D80",
"3. c #797E81",
"4. c #B37E81",
"5. c #7C8184",
"6. c #808487",
"7. c #818689",
"8. c #84898B",
"9. c #888C8F",
"0. c #8A8E91",
"q. c #8D9193",
"w. c #8D9398",
"e. c #919496",
"r. c #929699",
"t. c #95999B",
"y. c #999C9E",
"u. c #B68082",
"i. c #BA8485",
"p. c #BD8688",
"a. c #9B9FA0",
"s. c #9DA1A3",
"d. c #9EA3A8",
"f. c #A2A5A6",
"g. c #A4A7A9",
"h. c #A5A9AB",
"j. c #AAACAE",
"k. c #B2A1A3",
"l. c #B1ADAF",
"z. c #A6ACB0",
"x. c #ABAEB0",
"c. c #BFAFB1",
"v. c #ADB0B3",
"b. c #B1B4B5",
"n. c #B2B5B8",
"m. c #B5B9BC",
"M. c #B9BCBD",
"N. c #C08B8C",
"B. c #C4B3B4",
"V. c #C8B7B9",
"C. c #CDBBBD",
"Z. c #D0BFBF",
"A. c #B9BDC0",
"S. c #C0BEC0",
"D. c #BFC1C3",
"F. c #C4C6C7",
"G. c #C8C5C6",
"H. c #C4C7C8",
"J. c #C7C9CB",
"K. c #CBCCCD",
"L. c #D4C2C2",
"P. c #D2CECF",
"I. c #CCCFD1",
"U. c #CED0D1",
"Y. c #D4D4D5",
"T. c #D8D3D4",
"R. c #D6D7D8",
"E. c #DBD7D8",
"W. c #D6D9D9",
"Q. c #DCDDDD",
"!. c #DFE1E1",
"~. c #E2E3E3",
"^. c None",
/* pixels */
"^.^.^.^.^.^.^.^.^.^.^.^.^.^.^.^.^.^.^.^.^.^.^.^.^.^.^.^.^.^.^.^.^.^.^.^.^.^.^.^.^.^.^.^.^.^.^.^.^.^.^.^.^.^.^.^.^.^.^.^.^.^.^.^.",
"^.^.^.^.^.^.^.^.^.^.^.^.^.^.^.^.^.^.^.^.^.^.^.^.^.^.^.^.^.^.^.^.^.^.^.^.^.^.^.^.^.Y M ^.^.^.^.^.^.^.^.^.^.^.^.^.^.^.^.^.^.^.^.^.",
"^.^.^.^.^.^.^.^.^.^.^.^.^.^.^.o % = 3 v v v c < & # X ^.^.^.^.^.^.^.^.^.^.^.^.^.Y ~.T.b ^.^.^.^.^.^.^.^.^.^.^.^.^.^.^.^.^.^.^.^.",
"^.^.^.^.^.^.^.^.^.^.^.^.o * v D L U U R E E T U P K B < # ^.^.^.^.^.^.^.^.^.^.Y !.!.~.T.b ^.^.^.^.^.^.^.^.^.^.^.^.^.^.^.^.^.^.^.",
"^.^.^.^.^.^.^.^.^.^.X = C L T E Q ^ ^ ^ 3.3.^ ^ ! W E U J c # ^.^.^.^.^.^.^.I Q.Q.!.Q.!.U.b ^.^.^.^.^.^.^.^.^.^.^.^.^.^.^.^.^.^.",
"^.^.^.^.^.^.^.^.^.$ m P T W ~ 5.6.8.8.0.9.9.9.9.8.5.3.! E U J , . ^.^.^.^.I R.W.Q.!.!.Q.!.U.b ^.^.^.^.^.^.^.^.^.^.^.^.^.^.^.^.^.",
"^.^.^.^.^.^.^.^.- J T W ^ 6.9.0.e.t.t.a.a.a.t.t.r.e.9.7.5.~ E U m + ^.^.K P.Y.R.Q.Q.!.Q.Q.Q.G.b ^.^.^.^.^.^.^.^.^.^.^.^.^.^.^.^.",
"^.^.^.^.^.^.X 1 L R ~ 5.9.q.t.a.f.f.g.f.h.h.j.f.f.a.y.r.9.8.3.W U Z X F K.P.U.T.Q.!.Q.Q.Q.W.Q.F.b ^.^.^.^.^.^.^.^.^.^.^.^.^.^.^.",
"^.^.^.^.^.  3 U E 2.7.q.t.a.f.g.j.b.b.j.j.x.b.b.b.j.f.s.a.e.0.5.~ v F F.G.K.Y.R.Q.!.!.Q.Q.R.Y.W.F.4 ^.^.^.^.^.^.^.^.^.^.^.^.^.^.",
"^.^.^.^.^., P E 2.8.q.y.f.g.b.b.9.I N d a a g S ^ f.M.l.f.s.t.e.V A M.D.F.K.U.W.Q.Q.!.Q.Q.R.Y.Y.Y.F.4 ^.^.^.^.^.^.^.^.^.^.^.^.^.",
"^.^.^.^.% K R ^ 9.e.a.g.l.v.3.f 8 r / ` ] ` _ t q y F f.b.j.f.F A b.M.D.F.K.P.R.Q.Q.!.Q.Q.W.Y.Y.K.U.A.4 ^.^.^.^.^.^.^.^.^.^.^.^.",
"^.^.^.o Z R ~ 8.q.a.g.v.g.n 5 _ [ { { } } { { { [ ] e : ^ M.I A j.b.M.D.F.K.Y.R.Q.Q.!.Q.Q.W.W.Y.U.K.K.M.4 ^.^.^.^.^.^.^.^.^.^.^.",
"^.^.^.< U ! 6.q.y.g.v.t.> r [ [ } | |  . .X. .} } { [ ` 7 4 C f.j.b.M.D.F.K.Y.Y.Q.Q.~.Q.Q.E.Y.Y.U.K.J.J.n.2 ^.^.^.^.^.^.^.^.^.^.",
"^.^.o G E 3.9.t.f.v.s.: / [ } |  .X.O.O.$.O.O.O.X. .} { 5 v a.f.j.b.M.D.F.K.Y.R.Q.Q.Q.~.Q.E.Y.Y.U.K.J.F.H.v.2 ^.^.^.^.^.^.^.^.^.",
"^.^.< T ! 7.q.s.j.v.h t [ } | o.O.&.&.*.-.-.*.&.$.O.X.0 m t.a.f.j.b.M.D.F.K.Y.R.Q.Q.~.Q.Q.E.Y.U.I.K.J.F.D.D.v.3 ^.^.^.^.^.^.^.^.",
"^.X C T 3.9.y.g.n.Y 6 [ } | o.$.&.,.;.+.z x #.,.=.*.j b q.t.a.f.j.b.M.D.F.K.U.W.Q.Q.Q.Q.Q.R.R.Y.I.K.J.F.F.M.M.j.2 ^.^.^.^.^.^.^.",
"^.$ K W 5.q.s.j.g.u ' { | o.$.=.;.l O       . : @.l c 9.q.t.a.f.j.b.M.D.H.K.P.E.Q.Q.!.Q.Q.R.R.Y.U.K.J.F.H.A.A.n.d.1 ^.^.^.^.^.^.",
"^.- U ! 9.r.g.v.Q w [ }  .O.=.;.u               X c 5.5.q.t.a.f.j.b.M.D.H.K.P.W.Q.!.!.Q.Q.R.R.U.U.K.J.F.S.A.A.n.n.d.1 ^.^.^.^.^.",
"^.v T ^ 9.y.g.v.N ) { | O.&.,.s                 < ~ 5.q.q.t.a.f.j.b.M.D.H.K.P.W.Q.Q.!.Q.Q.R.R.Y.I.K.J.F.A.A.n.n.v.v.d.< ^.^.^.^.",
"  B R 5.0.y.j.h.i ' { | O.=.@..               < W ~ 5.5.q.e.a.f.j.b.M.D.F.K.Y.W.Q.!.!.Q.Q.R.R.U.I.K.J.F.A.A.A.n.v.z.z.r.< ^.^.^.",
"X C W 5.q.y.l.t.7 [ } X.$.,.l               - U E ! 5.5.0.t.a.f.j.b.M.D.F.K.U.W.Q.!.!.Q.Q.R.R.Y.U.K.K.S.A.A.n.n.v.z.h.h.r.< ^.^.",
"X D E 5.q.f.v.q.8 [ } X.$.,.i             = J U E ! 5.5.0.t.a.f.j.b.M.D.F.K.U.E.W.<.N.~.Q.W.R.U.I.I.I.S.H.A.A.n.v.z.d.d.d.w., ^.",
"X Z E 5.q.s.l.q.8 [ } X.$.,.i             = K U E ! 5.5.q.t.a.f.j.b.M.D.H.K.P.W.E.<.>.E.Q.R.Y.Y.U.K.J.J.S.A.A.n.v.z.h.d.d.w., ^.",
"X C E 5.q.s.j.y.7 [ } X.$.-.l               - U W ~ 5.5.0.t.a.f.j.b.M.D.H.K.T.W.Q.~.L.N.T.Q.Y.Y.U.K.J.S.S.A.A.n.v.z.h.h.r., ^.^.",
"  m E 5.0.y.j.j.i ' {  .$.=.@..               < E ! 5.8.q.r.a.f.j.b.M.D.F.K.Y.Y.E.!.~.L.N.P.W.Y.I.K.J.F.A.A.m.n.v.z.z.r.< ^.^.^.",
"^.v R ^ 9.t.g.b.N ( { | o.&.:.s                 < ~ 5.8.0.r.a.f.j.b.M.D.F.K.Y.Y.Q.!.!.!.Z.i.P.T.I.K.J.F.F.A.m.n.v.v.d.1 ^.^.^.^.",
"^., U ~ 9.t.g.v.! w [ }  .$.=.:.:               . 4 5.5.0.t.a.g.j.b.M.D.F.K.Y.Y.Q.Q.!.Q.!.Z.4.P.Y.K.J.F.A.A.m.n.n.d.< ^.^.^.^.^.",
"^.$ K W 7.q.a.j.g.u ' { | o.$.=.;.l O       . : @.k v 9.q.r.a.f.j.b.M.M.F.K.Y.W.Q.Q.!.Q.E.Q.C.4.J.I.J.F.F.A.m.m.z.< ^.^.^.^.^.^.",
"^.X C T 3.0.y.g.n.Y 9 [ } X.O.$.=.,.;.+.z x #.,.=.=.j b q.t.a.g.j.b.M.D.F.K.Y.Y.Q.Q.!.!.Q.W.W.V.4.S.K.F.D.A.A.z.3 ^.^.^.^.^.^.^.",
"^.^.< T ! 8.e.f.l.v.h t [ } | o.$.$.=.-.-.-.=.&.$.O.X.0 b t.s.g.j.b.M.S.F.K.Y.E.Q.!.Q.Q.Q.R.R.W.V.4.S.J.D.D.v.2 ^.^.^.^.^.^.^.^.",
"^.^.+ D E 3.0.t.f.v.s.u / [ } | X.X.O.O.$.$.O.O.o.| | ..9 v s.g.j.b.M.D.F.K.Y.Y.Q.Q.!.Q.Q.R.R.U.Y.B.4.S.H.v.3 ^.^.^.^.^.^.^.^.^.",
"^.^.^.< U ! 7.q.y.g.v.y.> r [ [ } | | X. . . .| | } { _ 7 h C g.j.b.M.S.F.K.Y.Y.Q.!.!.Q.Q.W.Y.Y.I.I.c.4.l.4 ^.^.^.^.^.^.^.^.^.^.",
"^.^.^.o C E ~ 9.e.a.g.b.f.n 5 _ [ { { } } } { [ [ ' e y 3.m.I V j.b.M.F.F.K.U.W.E.Q.~.Q.Q.E.R.U.U.K.U.k.; ^.^.^.^.^.^.^.^.^.^.^.",
"^.^.^.^.% K E 3.9.e.s.g.v.n.5.f 8 r ) ` ' ' _ / w y F f.b.j.j.F A b.M.M.F.K.U.W.Q.!.!.Q.Q.W.R.Y.U.U.A.c ^.^.^.^.^.^.^.^.^.^.^.^.",
"^.^.^.^.^.< P E 3.9.e.y.g.h.v.v.0.I N d p a g S ^ g.m.l.g.f.t.r.M A M.F.F.K.U.E.Q.!.Q.!.E.E.R.U.U.D.4 ^.^.^.^.^.^.^.^.^.^.^.^.^.",
"^.^.^.^.^.  3 U Q ^ 7.q.y.y.g.j.l.n.n.v.z.x.b.m.b.l.g.f.y.e.9.6.^ b J F.F.K.U.E.Q.Q.!.Q.Q.E.R.R.F.b ^.^.^.^.^.^.^.^.^.^.^.^.^.^.",
"^.^.^.^.^.^.X 3 P E ~ 6.9.q.t.a.f.g.g.h.j.g.g.g.f.s.y.r.q.8.3.! T D o L K.K.U.W.Q.Q.!.Q.Q.W.E.F.b ^.^.^.^.^.^.^.^.^.^.^.^.^.^.^.",
"^.^.^.^.^.^.^.^.- H T ! 2.8.0.q.e.t.y.y.a.a.a.t.r.e.0.9.5.~ E T m # ^.^.I U.Y.W.Q.!.!.Q.E.Q.K.b ^.^.^.^.^.^.^.^.^.^.^.^.^.^.^.^.",
"^.^.^.^.^.^.^.^.^.$ B U R ! 2.5.7.9.0.0.q.0.0.0.9.7.5.~ W T H < X ^.^.^.^.Y Y.E.Q.!.Q.Q.!.I.b ^.^.^.^.^.^.^.^.^.^.^.^.^.^.^.^.^.",
"^.^.^.^.^.^.^.^.^.^.o = Z P R W ! ^ 3.3.3.3.3.~ ! W E U J c # ^.^.^.^.^.^.^.I Q.Q.Q.~.!.P.b ^.^.^.^.^.^.^.^.^.^.^.^.^.^.^.^.^.^.",
"^.^.^.^.^.^.^.^.^.^.^.^.o & b G L T R R E E E R U K V < @ ^.^.^.^.^.^.^.^.^.^.Y ~.~.~.Y.b ^.^.^.^.^.^.^.^.^.^.^.^.^.^.^.^.^.^.^.",
"^.^.^.^.^.^.^.^.^.^.^.^.^.^.^.o % - 3 v v v v < * # X ^.^.^.^.^.^.^.^.^.^.^.^.^.Y ~.Y.b ^.^.^.^.^.^.^.^.^.^.^.^.^.^.^.^.^.^.^.^.",
"^.^.^.^.^.^.^.^.^.^.^.^.^.^.^.^.^.^.^.^.^.^.^.^.^.^.^.^.^.^.^.^.^.^.^.^.^.^.^.^.^.Y M ^.^.^.^.^.^.^.^.^.^.^.^.^.^.^.^.^.^.^.^.^.",
"^.^.^.^.^.^.^.^.^.^.^.^.^.^.^.^.^.^.^.^.^.^.^.^.^.^.^.^.^.^.^.^.^.^.^.^.^.^.^.^.^.^.^.^.^.^.^.^.^.^.^.^.^.^.^.^.^.^.^.^.^.^.^.^."
};
