/* XPM */
static char *f6845b52271347b3ececce1044781a9d[] = {
/* columns rows colors chars-per-pixel */
"32 22 105 2 ",
"   c #010101",
".  c #060909",
"X  c #08090A",
"o  c #160D0C",
"O  c #1B0E0E",
"+  c #16191A",
"@  c #191C1C",
"#  c #262B2C",
"$  c #2C2C2C",
"%  c #2A2E30",
"&  c #2D3233",
"*  c #373C3E",
"=  c #383E3F",
"-  c #442322",
";  c #542F2E",
":  c #54302F",
">  c #543233",
",  c #6E2D2F",
"<  c #772426",
"1  c #762628",
"2  c #722E2E",
"3  c #673533",
"4  c #6E3739",
"5  c #753133",
"6  c #7D3D3C",
"7  c #3A3F41",
"8  c #3D4245",
"9  c #404648",
"0  c #434A4C",
"q  c #4C5355",
"w  c #4F5658",
"e  c #535B5D",
"r  c #585D5E",
"t  c #744445",
"y  c #745254",
"u  c #765B5C",
"i  c #636A6D",
"p  c #6A6D6E",
"a  c #6A6E72",
"s  c #6B7275",
"d  c #747576",
"f  c #727779",
"g  c #747A7D",
"h  c #851C1E",
"j  c #891B1D",
"k  c #921B1D",
"l  c #9A2224",
"z  c #9F292B",
"x  c #A12D2E",
"c  c #A23536",
"v  c #A33738",
"b  c #A53A3A",
"n  c #934645",
"m  c #9F4948",
"M  c #AA4443",
"N  c #AB4847",
"B  c #A14B49",
"V  c #AC4949",
"C  c #817375",
"Z  c #847A7C",
"A  c #777D80",
"S  c #797E81",
"D  c #7E8386",
"F  c #848586",
"G  c #8A8384",
"H  c #818688",
"J  c #83898B",
"K  c #8A8D8E",
"L  c #8B8F91",
"P  c #8D9394",
"I  c #919394",
"U  c #95989A",
"Y  c #999B9D",
"T  c #9B9FA1",
"R  c #9EA2A3",
"E  c #A2A4A6",
"W  c #A2A7A9",
"Q  c #A5AAAD",
"!  c #ACAEAE",
"~  c #BFA4A6",
"^  c #A9AEB1",
"/  c #ADB1B3",
"(  c #B3B5B5",
")  c #B2B6B9",
"_  c #BCBEBF",
"`  c #C9A5A6",
"'  c #C0A7AA",
"]  c #C4A9AB",
"[  c #C9AEAF",
"{  c #CFB5B6",
"}  c #BABEC0",
"|  c #C2C4C5",
" . c #CBC3C4",
".. c #C3C6C8",
"X. c #CACBCC",
"o. c #D6CBCC",
"O. c #D3D4D5",
"+. c #DAD2D2",
"@. c #D3D7D8",
"#. c #D6D9D9",
"$. c #DCDCDD",
"%. c #DFDFE0",
"&. c #DFE1E2",
"*. c #E4E5E5",
"=. c None",
/* pixels */
"=.=.=.=.=.=.=.=.=.=.=.=.=.=.=.=.=.=.=.=.=.=.=.=.=.=.=.=.=.=.=.=.",
"=.=.=.=.=.=.=.# = 9 0 0 = # =.=.=.=.=.=.( Y =.=.=.=.=.=.=.=.=.=.",
"=.=.=.=.=.& w s A D D D g s q # =.=.=.! *.*.I =.=.=.=.=.=.=.=.=.",
"=.=.=.=.8 s D L Y E W E Y L D s 8 $ E %.$.%.*.K =.=.=.=.=.=.=.=.",
"=.=.=.0 g K R Q Y G Z G T ^ T K r U O.O.$.%.#.$.K =.=.=.=.=.=.=.",
"=.=.* f L W R y < h j h 1 u R g K | X.O.$.%.#.O.O.F =.=.=.=.=.=.",
"=.=.i J R U , k x c b c x j > D ( _ X.O.$.%.#.O.X.X.F =.=.=.=.=.",
"=.8 S U W 4 l c M m n B M 2 f W ! _ X.O.%.$.$.O.X... .g =.=.=.=.",
"=.e J Q C j c N 3 o   O > a U R ! _ X.O.$.%.#.O.X.X.} } f =.=.=.",
"@ i L Q t l M 6       X e D P R / _ X.O.&.%.#.O.X...} ) / a =.=.",
"+ s I W 5 z N -     X q f D P R / _ X.#.{ o.$.O.X...} ) ^ ^ i =.",
"+ s U W 5 z N -     . q g D P R / _ X.#.{ ` #.O.X.X.} ) ^ ^ i =.",
"@ i L ^ t l M 6       . e J P R ! _ X.O.*.+.[ O.X...} ) / a =.=.",
"=.e J Q C j c V 3 o . O ; p U R / } X.O.$.%.o.] X...} } f =.=.=.",
"=.8 S Y W 4 l v N m n B M 2 d W / _ X.O.%.%.$. .' ....g =.=.=.=.",
"=.=.i J W U , k z v b v z k > J ( _ X.O.$.$.$.O. .' S =.=.=.=.=.",
"=.=.7 g L W R y 1 j j h 1 u E f K | X.O.%.%.#.+.O.Z =.=.=.=.=.=.",
"=.=.=.0 A L T ! T G Z G R ! T L r U O.+.$.%.$.$.K =.=.=.=.=.=.=.",
"=.=.=.=.8 f H P T E W E Y P H s 8 $ E $.%.%.*.L =.=.=.=.=.=.=.=.",
"=.=.=.=.=.& w s S D H D A s q % =.=.=.! *.*.I =.=.=.=.=.=.=.=.=.",
"=.=.=.=.=.=.=.% 7 0 0 0 = # =.=.=.=.=.=.( U =.=.=.=.=.=.=.=.=.=.",
"=.=.=.=.=.=.=.=.=.=.=.=.=.=.=.=.=.=.=.=.=.=.=.=.=.=.=.=.=.=.=.=."
};
