/* XPM */
static char *cc7ae02cb7aa46fdadbf2dd37ee7e39a[] = {
/* columns rows colors chars-per-pixel */
"16 12 87 1 ",
"  c #070404",
". c #0C1213",
"X c #2B2E30",
"o c #5D2827",
"O c #5D2928",
"+ c #7E3333",
"@ c #7E3434",
"# c #773C3C",
"$ c #783D3D",
"% c #505759",
"& c #52575A",
"* c #52595A",
"= c #53585B",
"- c #575D5F",
"; c #585F60",
": c #595F60",
"> c #5C5F60",
", c #5A6062",
"< c #5C6062",
"1 c #5D6466",
"2 c #5F6567",
"3 c #687173",
"4 c #767C7F",
"5 c #982A2B",
"6 c #982B2C",
"7 c #903534",
"8 c #903535",
"9 c #993435",
"0 c #993536",
"q c #923738",
"w c #923739",
"e c #8E4143",
"r c #8E4243",
"t c #8F4C4E",
"y c #8E6B6D",
"u c #8E6C6E",
"i c #80797B",
"p c #817A7B",
"a c #907879",
"s c #91787A",
"d c #787E80",
"f c #7C8487",
"g c #7D8587",
"h c #8B898B",
"j c #8B9093",
"k c #8A9295",
"l c #8C9496",
"z c #8F989A",
"x c #959395",
"c c #969496",
"v c #96989B",
"b c #979A9C",
"n c #959C9E",
"m c #969C9E",
"M c #969D9F",
"N c #989E9F",
"B c #979DA0",
"V c #9C9EA1",
"C c #9C9FA1",
"Z c #A79FA0",
"A c #ABACAE",
"S c #ACB0B1",
"D c gray70",
"F c #B5B8B9",
"G c #B7BBBC",
"H c #B8B9B9",
"J c #B9BEC1",
"K c #C4C5C5",
"L c #C9C4C6",
"P c #CFC4C5",
"I c #C5C7C9",
"U c #C6C9CA",
"Y c #D5C4C5",
"T c #D1CACB",
"R c #CDCFD1",
"E c #D0CFD0",
"W c #D0D1D1",
"Q c #D0D1D2",
"! c #D4D5D6",
"~ c #D9D1D1",
"^ c #D5D7D8",
"/ c #DDDEDF",
"( c gray87",
") c #DFDFDF",
"_ c #DFE0E0",
"` c #ECECEC",
"' c None",
/* pixels */
"''''''''''''''''",
"''''-1%'''D'''''",
"'':kvxb4<K`H''''",
"'&ny09r4S!((A'''",
"'fs5+o$hGW_!RC''",
"Xzt8 .3NFW~^IJj'",
"Xzt8 .3NFWYTIJj'",
"'fs6+o$hGW_PLC''",
"'%Buw0rpS!))Z'''",
"'',lbcBd>K`H''''",
"'''',2%'''D'''''",
"''''''''''''''''"
};
